<svg width="20" height="20" viewBox="0 0 20 20" fill="none" xmlns="http://www.w3.org/2000/svg">
<path d="M2.5 8.68051C2.5 6.01585 2.5 4.68352 2.8146 4.2353C3.12919 3.78708 4.38194 3.35826 6.88743 2.50062L7.36477 2.33722C8.67082 1.89016 9.32384 1.66663 10 1.66663C10.6762 1.66663 11.3292 1.89016 12.6352 2.33722L13.1126 2.50062C15.6181 3.35826 16.8708 3.78708 17.1854 4.2353C17.5 4.68352 17.5 6.01585 17.5 8.68051C17.5 9.083 17.5 9.51947 17.5 9.99276C17.5 14.6912 13.9675 16.9712 11.7512 17.9394C11.15 18.202 10.8494 18.3333 10 18.3333C9.15062 18.3333 8.85001 18.202 8.2488 17.9394C6.03247 16.9712 2.5 14.6912 2.5 9.99276C2.5 9.51947 2.5 9.083 2.5 8.68051Z" stroke="#4D4D4D" stroke-width="1.5"/>
<path d="M7.9165 10.3334L9.10698 11.6667L12.0832 8.33337" stroke="#4D4D4D" stroke-width="1.5" stroke-linecap="round" stroke-linejoin="round"/>
</svg>
